# xmcd
#
# Track frame offsets:
#  182
#  20977
#  36205
#  50725
#
# Disc length: 949 seconds
#
# Revision: 0
# Processed by: cddbd v1.5.1PL2 Copyright (c) Steve Scherf et al.
# Submitted via: Collectorz.com_Music_Collector 6.11
#
DISCID=3503b304
DTITLE=Zevon, Warren - Splendid Isolation
DYEAR=1989
DGENRE=
TTITLE0=Splendid Isolation
TTITLE1=Even A Dog Can Shake Hands
TTITLE2=Bad Karma
TTITLE3=Gridlock
EXTD=
EXTT0=
EXTT1=
EXTT2=
EXTT3=
PLAYORDER=
